<svg width="164" height="40" viewBox="0 0 164 40" fill="none" xmlns="http://www.w3.org/2000/svg">
<path d="M33.398 27.8926L33.8579 28.6133C34.6241 29.8239 34.9463 30.8966 35.0689 32.6436C35.2068 34.498 35.498 35.249 36.4175 36C37.0919 36.567 38.7313 37.2725 40.187 37.625C41.3211 37.9162 41.3065 37.8851 41.1226 39.2949L41.0152 40H32.4937L32.4478 35.7393C32.3865 30.7894 32.3866 30.7586 30.8081 29.0576C30.2885 28.5074 29.8759 28.018 29.8736 27.9697C29.8736 27.9238 30.67 27.8926 31.6353 27.8926H33.398ZM39.774 0L41.3365 2.29883L42.9156 4.59766H20.5708L19.0074 6.94238C18.1644 8.22974 17.4595 9.33353 17.4595 9.41016C17.4617 9.56634 19.9415 13.1787 20.0493 13.1797C20.0953 13.1797 20.8311 12.1376 21.6587 10.8809L23.1763 8.58203H34.3784L45.5816 8.59766L47.1294 10.9268L48.6773 13.2568L39.9117 26.3447L28.7701 26.3604H17.6128L16.7847 27.4785C15.1908 29.6241 14.1642 30.2376 12.0952 30.2529C10.9767 30.2682 10.6703 30.2066 9.87356 29.8389C9.36793 29.609 8.67797 29.3492 8.31009 29.2725C6.90015 28.9506 5.27519 29.7161 3.19095 31.6777C2.62555 32.2126 2.12129 32.6411 2.07278 32.6436C1.98083 32.6436 0.876525 31.9383 0.478057 31.6318C0.401088 31.5461 4.76366 24.0722 4.87649 24.123C8.96845 26.4066 11.2679 27.6011 11.7583 27.6777C12.8617 27.8463 13.5975 27.3718 14.854 25.6709L15.9575 24.1836L12.2788 18.7129L8.6011 13.2412L13.0298 6.62109L17.4751 0H39.774Z" fill="#FF3401"/>
<path d="M71.4019 12.7576C71.4019 18.8105 71.4312 18.9582 72.1841 17.659C73.9852 14.5885 79.0484 13.998 81.8091 16.5369C83.0639 17.6885 83.8617 19.1944 84.2603 21.1727C84.4965 22.339 84.4965 25.956 84.2603 27.078C83.4483 30.9458 81.3665 33.0121 77.9712 33.3075C75.5649 33.4994 73.2618 32.4221 72.1841 30.5916C71.6674 29.7058 71.4019 29.7501 71.4019 30.7244C71.4019 31.1525 71.3573 31.8609 71.313 32.2742L71.2095 33.0565H66.6772V7.22151H71.4019V12.7576ZM142.987 15.1942L143.046 20.9071C143.105 26.9008 143.135 27.2404 143.785 28.2C144.995 30.001 148.302 29.7942 149.601 27.8455C149.867 27.4469 150.147 26.8859 150.236 26.5907C150.324 26.2654 150.383 23.8594 150.383 20.6121V15.1942H155.255V33.0575H150.723L150.62 32.4959C150.575 32.2006 150.531 31.4624 150.531 30.8719C150.531 30.0165 150.487 29.8097 150.295 29.8094C150.177 29.8094 149.985 30.031 149.867 30.2967C149.527 31.1233 148.509 32.1269 147.535 32.6141C144.346 34.179 140.242 32.9828 138.987 30.1483C138.337 28.6721 138.293 28.0077 138.278 21.4237V15.1942H142.987ZM93.812 15.0457C94.9341 14.8391 97.3402 14.9864 98.4917 15.3407C101.415 16.2412 103.393 18.3969 104.117 21.4676C104.456 22.9585 104.426 25.5713 104.042 27.0477C103.275 29.9855 101.459 31.935 98.6685 32.8651C97.6059 33.2045 97.2219 33.2488 95.5396 33.2489C93.8567 33.2489 93.4723 33.2045 92.4243 32.8651C89.5898 31.9202 87.744 29.9565 86.9468 26.9891C86.5925 25.6751 86.5924 22.5746 86.9614 21.2459C87.9063 17.7915 90.2099 15.6953 93.812 15.0457ZM111.778 17.9246C112.752 19.4157 113.624 20.6551 113.698 20.6551C113.789 20.6513 114.644 19.4134 115.617 17.9246L117.388 15.1932H120.089C122.214 15.1932 122.776 15.2373 122.688 15.37C122.629 15.4733 121.33 17.3783 119.794 19.578C118.275 21.7909 117.021 23.6794 117.019 23.7703C117.019 23.8589 118.436 25.9409 120.164 28.3768C121.875 30.8115 123.321 32.8627 123.337 32.9383C123.367 32.9974 122.142 33.0565 120.607 33.0565H117.816L115.764 30.0301C114.642 28.3619 113.638 27.0037 113.549 27.0037C113.47 27.0064 112.878 27.753 112.096 28.8162L110.426 31.1248C109.644 32.1974 109.054 32.9757 108.988 32.9979C108.882 33.042 107.673 33.0419 106.272 33.0272L103.748 32.9823L107.054 28.45L110.375 23.9178L107.453 19.7401C105.843 17.4371 104.471 15.4733 104.412 15.37C104.324 15.2372 104.915 15.1932 107.158 15.1932H110.006L111.778 17.9246ZM132.476 6.85237C133.376 6.63103 136.563 6.601 136.919 6.8221C137.038 6.91068 137.097 7.47229 137.097 8.75667V10.5575L135.768 10.4989C133.096 10.3661 132.195 11.1926 131.989 13.9237L131.885 15.1932H136.506V19.0321H131.93V33.0565H127.206V19.0321L124.77 19.0018L122.334 18.9578L123.619 17.0828L124.917 15.2078L126.04 15.1932H127.162L127.25 13.5252C127.339 11.68 127.648 10.5871 128.372 9.52425C129.272 8.22515 130.69 7.31004 132.476 6.85237ZM163.523 33.0565H158.799V7.22151H163.523V33.0565ZM76.436 18.8992C75.5799 18.7221 75.5646 18.7222 74.6938 18.8846C73.8081 19.0618 73.276 19.3719 72.6265 20.1248C71.7852 21.0843 71.5493 21.9553 71.5493 24.1102C71.5493 26.9445 72.0952 28.2293 73.645 28.9823C75.7708 30.0304 78.0597 29.3517 78.9751 27.4032C79.9494 25.3511 79.7867 21.9553 78.6353 20.2723C78.1186 19.5342 77.4545 19.1207 76.436 18.8992ZM95.5396 18.8846C93.6499 18.8846 92.4684 19.7552 91.8188 21.5858C91.6122 22.1762 91.5532 22.7963 91.5532 24.2723C91.5532 26.0733 91.5824 26.251 91.981 27.1219C92.7043 28.6868 93.7971 29.41 95.4653 29.41C96.6167 29.41 97.399 29.1001 98.1519 28.3768C99.2296 27.3286 99.732 25.2466 99.4663 23.0174C99.2153 21.0394 98.4469 19.7701 97.1626 19.1649C96.7641 18.9878 96.233 18.8846 95.5396 18.8846Z" fill="#FF3401"/>
</svg>
